{
	"asset":{
		"generator":"Khronos glTF Blender I/O v3.5.30",
		"version":"2.0"
	},
	"scene":0,
	"scenes":[
		{
			"name":"Scene",
			"nodes":[
				0
			]
		}
	],
	"nodes":[
		{
			"mesh":0,
			"name":"Sphere"
		}
	],
	"meshes":[
		{
			"name":"Sphere",
			"primitives":[
				{
					"attributes":{
						"POSITION":0,
						"TEXCOORD_0":1,
						"NORMAL":2
					},
					"indices":3
				}
			]
		}
	],
	"accessors":[
		{
			"bufferView":0,
			"componentType":5126,
			"count":6660,
			"max":[
				0.9967699646949768,
				1,
				0.9976691007614136
			],
			"min":[
				-0.9967703223228455,
				-1,
				-0.9976687431335449
			],
			"type":"VEC3"
		},
		{
			"bufferView":1,
			"componentType":5126,
			"count":6660,
			"type":"VEC2"
		},
		{
			"bufferView":2,
			"componentType":5126,
			"count":6660,
			"type":"VEC3"
		},
		{
			"bufferView":3,
			"componentType":5123,
			"count":9768,
			"type":"SCALAR"
		}
	],
	"bufferViews":[
		{
			"buffer":0,
			"byteLength":79920,
			"byteOffset":0,
			"target":34962
		},
		{
			"buffer":0,
			"byteLength":53280,
			"byteOffset":79920,
			"target":34962
		},
		{
			"buffer":0,
			"byteLength":79920,
			"byteOffset":133200,
			"target":34962
		},
		{
			"buffer":0,
			"byteLength":19536,
			"byteOffset":213120,
			"target":34963
		}
	],
	"buffers":[
		{
			"byteLength":232656,
			"uri":"data:application/octet-stream;base64,"
		}
	]
}
