{
	"asset":{
		"generator":"Khronos glTF Blender I/O v3.5.30",
		"version":"2.0"
	},
	"extensionsUsed":[
		"KHR_materials_specular",
		"KHR_materials_ior"
	],
	"scene":0,
	"scenes":[
		{
			"name":"Scene",
			"nodes":[
				0,
				1,
				2
			]
		}
	],
	"nodes":[
		{
			"mesh":0,
			"name":"Body",
			"translation":[
				0.008470778353512287,
				0.7454285025596619,
				0.9595453143119812
			]
		},
		{
			"mesh":1,
			"name":"RightLeg",
			"scale":[
				1,
				1,
				0.44787168502807617
			],
			"translation":[
				0.008470778353512287,
				0.7454285025596619,
				0.9595453143119812
			]
		},
		{
			"mesh":2,
			"name":"LeftLeg",
			"scale":[
				1,
				1,
				0.44787168502807617
			],
			"translation":[
				0.008470776490867138,
				0.7397814393043518,
				-0.9631811380386353
			]
		}
	],
	"materials":[
		{
			"doubleSided":true,
			"extensions":{
				"KHR_materials_specular":{
					"specularColorTexture":{
						"index":0
					}
				},
				"KHR_materials_ior":{
					"ior":1.4500000476837158
				}
			},
			"name":"Material",
			"pbrMetallicRoughness":{
				"baseColorTexture":{
					"index":1
				},
				"roughnessFactor":0.13636362552642822
			}
		}
	],
	"meshes":[
		{
			"name":"Cube",
			"primitives":[
				{
					"attributes":{
						"POSITION":0,
						"TEXCOORD_0":1,
						"NORMAL":2
					},
					"indices":3,
					"material":0
				}
			]
		},
		{
			"name":"Cube.001",
			"primitives":[
				{
					"attributes":{
						"POSITION":4,
						"TEXCOORD_0":5,
						"NORMAL":6
					},
					"indices":3,
					"material":0
				}
			]
		},
		{
			"name":"Cube.002",
			"primitives":[
				{
					"attributes":{
						"POSITION":7,
						"TEXCOORD_0":8,
						"NORMAL":9
					},
					"indices":3,
					"material":0
				}
			]
		}
	],
	"textures":[
		{
			"sampler":0,
			"source":0
		},
		{
			"sampler":0,
			"source":1
		}
	],
	"images":[
		{
			"bufferView":4,
			"mimeType":"image/png",
			"name":"Image"
		},
		{
			"bufferView":5,
			"mimeType":"image/png",
			"name":"Metal"
		}
	],
	"accessors":[
		{
			"bufferView":0,
			"componentType":5126,
			"count":24,
			"max":[
				0.3452294170856476,
				0.25457149744033813,
				-0.45618224143981934
			],
			"min":[
				-0.3621709644794464,
				-1.7454285621643066,
				-1.462908387184143
			],
			"type":"VEC3"
		},
		{
			"bufferView":1,
			"componentType":5126,
			"count":24,
			"type":"VEC2"
		},
		{
			"bufferView":2,
			"componentType":5126,
			"count":24,
			"type":"VEC3"
		},
		{
			"bufferView":3,
			"componentType":5123,
			"count":36,
			"type":"SCALAR"
		},
		{
			"bufferView":6,
			"componentType":5126,
			"count":24,
			"max":[
				0.3452294170856476,
				0.25457149744033813,
				4.488229751586914e-05
			],
			"min":[
				-0.3621709644794464,
				-1.7454285621643066,
				-1.006681203842163
			],
			"type":"VEC3"
		},
		{
			"bufferView":7,
			"componentType":5126,
			"count":24,
			"type":"VEC2"
		},
		{
			"bufferView":8,
			"componentType":5126,
			"count":24,
			"type":"VEC3"
		},
		{
			"bufferView":9,
			"componentType":5126,
			"count":24,
			"max":[
				0.3452294170856476,
				0.2602185606956482,
				1.0066463947296143
			],
			"min":[
				-0.3621709644794464,
				-1.739781379699707,
				-7.981061935424805e-05
			],
			"type":"VEC3"
		},
		{
			"bufferView":10,
			"componentType":5126,
			"count":24,
			"type":"VEC2"
		},
		{
			"bufferView":11,
			"componentType":5126,
			"count":24,
			"type":"VEC3"
		}
	],
	"bufferViews":[
		{
			"buffer":0,
			"byteLength":288,
			"byteOffset":0,
			"target":34962
		},
		{
			"buffer":0,
			"byteLength":192,
			"byteOffset":288,
			"target":34962
		},
		{
			"buffer":0,
			"byteLength":288,
			"byteOffset":480,
			"target":34962
		},
		{
			"buffer":0,
			"byteLength":72,
			"byteOffset":768,
			"target":34963
		},
		{
			"buffer":0,
			"byteLength":17844,
			"byteOffset":840
		},
		{
			"buffer":0,
			"byteLength":265568,
			"byteOffset":18684
		},
		{
			"buffer":0,
			"byteLength":288,
			"byteOffset":284252,
			"target":34962
		},
		{
			"buffer":0,
			"byteLength":192,
			"byteOffset":284540,
			"target":34962
		},
		{
			"buffer":0,
			"byteLength":288,
			"byteOffset":284732,
			"target":34962
		},
		{
			"buffer":0,
			"byteLength":288,
			"byteOffset":285020,
			"target":34962
		},
		{
			"buffer":0,
			"byteLength":192,
			"byteOffset":285308,
			"target":34962
		},
		{
			"buffer":0,
			"byteLength":288,
			"byteOffset":285500,
			"target":34962
		}
	],
	"samplers":[
		{
			"magFilter":9729,
			"minFilter":9987
		}
	],
	"buffers":[
		{
			"byteLength":285788,
			"uri":"data:application/octet-stream;base64,"
		}
	]
}
